<?xml version="1.0" encoding="UTF-8" standalone="no"?>
<!-- Created with Inkscape (http://www.inkscape.org/) -->

<svg
   xmlns:dc="http://purl.org/dc/elements/1.1/"
   xmlns:cc="http://creativecommons.org/ns#"
   xmlns:rdf="http://www.w3.org/1999/02/22-rdf-syntax-ns#"
   xmlns:svg="http://www.w3.org/2000/svg"
   xmlns="http://www.w3.org/2000/svg"
   xmlns:sodipodi="http://sodipodi.sourceforge.net/DTD/sodipodi-0.dtd"
   xmlns:inkscape="http://www.inkscape.org/namespaces/inkscape"
   width="35.820915mm"
   height="39.548538mm"
   viewBox="0 0 35.820915 39.548538"
   version="1.1"
   id="svg8"
   inkscape:version="0.92.4 (5da689c313, 2019-01-14)"
   sodipodi:docname="icon-liqo-blue.svg">
  <defs
     id="defs2">
    <clipPath
       id="clipPath831"
       clipPathUnits="userSpaceOnUse">
      <path
         inkscape:connector-curvature="0"
         id="path829"
         d="M 0,368.504 H 368.504 V 0 H 0 Z" />
    </clipPath>
  </defs>
  <sodipodi:namedview
     id="base"
     pagecolor="#ffffff"
     bordercolor="#666666"
     borderopacity="1.0"
     inkscape:pageopacity="0.0"
     inkscape:pageshadow="2"
     inkscape:zoom="0.35"
     inkscape:cx="-546.44726"
     inkscape:cy="-31.399703"
     inkscape:document-units="mm"
     inkscape:current-layer="g827"
     showgrid="false"
     fit-margin-top="0"
     fit-margin-left="0"
     fit-margin-right="0"
     fit-margin-bottom="0"
     inkscape:window-width="1920"
     inkscape:window-height="1017"
     inkscape:window-x="-8"
     inkscape:window-y="-8"
     inkscape:window-maximized="1" />
  <metadata
     id="metadata5">
    <rdf:RDF>
      <cc:Work
         rdf:about="">
        <dc:format>image/svg+xml</dc:format>
        <dc:type
           rdf:resource="http://purl.org/dc/dcmitype/StillImage" />
        <dc:title></dc:title>
      </cc:Work>
    </rdf:RDF>
  </metadata>
  <g
     inkscape:label="Livello 1"
     inkscape:groupmode="layer"
     id="layer1"
     transform="translate(-123.79215,-100.97696)">
    <g
       transform="matrix(0.35277777,0,0,-0.35277777,44.613082,186.61898)"
       inkscape:label="Liqo_BLU 2"
       id="g823">
      <g
         id="g825">
        <g
           clip-path="url(#clipPath831)"
           id="g827">
          <g
             transform="translate(275.2144,225.8688)"
             id="g833">
            <path
               inkscape:connector-curvature="0"
               id="path835"
               style="fill:#395cb3;fill-opacity:1;fill-rule:nonzero;stroke:none"
               d="M 0,0 C 2.59,0 4.697,2.107 4.697,4.697 4.697,7.287 2.59,9.394 0,9.394 -2.589,9.394 -4.696,7.287 -4.696,4.697 -4.696,2.107 -2.589,0 0,0" />
          </g>
          <g
             transform="translate(275.2144,213.9675)"
             id="g837">
            <path
               inkscape:connector-curvature="0"
               id="path839"
               style="fill:#395cb3;fill-opacity:1;fill-rule:nonzero;stroke:none"
               d="M 0,0 C 2.59,0 4.697,2.107 4.697,4.697 4.697,7.287 2.59,9.394 0,9.394 -2.589,9.394 -4.696,7.287 -4.696,4.697 -4.696,2.107 -2.589,0 0,0" />
          </g>
          <g
             transform="translate(246.7153,194.862)"
             id="g841">
            <path
               inkscape:connector-curvature="0"
               id="path843"
               style="fill:#395cb3;fill-opacity:1;fill-rule:nonzero;stroke:none"
               d="m 0,0 c 0,-2.59 2.107,-4.697 4.696,-4.697 2.591,0 4.698,2.107 4.698,4.697 0,6.356 7.093,7.194 7.165,7.202 2.629,0.002 4.736,2.11 4.736,4.699 0,2.59 -2.107,4.697 -4.697,4.697 -2.589,0 -4.697,-2.107 -4.697,-4.697 0,-6.88 -7.12,-7.202 -7.192,-7.204 C 2.107,4.697 0,2.589 0,0" />
          </g>
          <g
             transform="translate(310.9185,199.5588)"
             id="g845">
            <path
               inkscape:connector-curvature="0"
               id="path847"
               style="fill:#395cb3;fill-opacity:1;fill-rule:nonzero;stroke:none"
               d="m 0,0 c -6.88,0 -7.202,7.12 -7.205,7.192 0,2.602 -2.107,4.709 -4.696,4.709 -6.88,0 -7.202,7.12 -7.204,7.192 0,2.602 -2.108,4.709 -4.697,4.709 -2.591,0 -4.697,-2.107 -4.697,-4.697 0,-6.879 -7.12,-7.202 -7.193,-7.204 -6.892,0 -7.213,7.12 -7.216,7.192 0,2.602 -2.108,4.709 -4.697,4.709 -2.589,0 -4.697,-2.107 -4.697,-4.697 0,-2.589 2.108,-4.696 4.697,-4.696 6.357,0 7.195,-7.094 7.203,-7.166 C -40.4,0.324 -47.521,0.002 -47.593,0 c -2.601,0 -4.709,-2.107 -4.709,-4.697 0,-6.88 -7.12,-7.202 -7.192,-7.204 -6.892,-10e-4 -7.214,7.12 -7.217,7.192 0,6.369 7.094,7.207 7.165,7.214 2.63,0.002 4.736,2.11 4.736,4.699 0,2.59 -2.106,4.697 -4.697,4.697 -2.589,0 -4.696,-2.107 -4.696,-4.697 0,-6.88 -7.12,-7.202 -7.193,-7.204 -2.602,0 -4.709,-2.107 -4.709,-4.697 0,-2.59 2.107,-4.697 4.698,-4.697 6.355,0 7.194,-7.094 7.202,-7.166 0.002,-2.628 2.109,-4.735 4.698,-4.735 6.358,0 7.195,-7.094 7.203,-7.165 0.002,-6.919 -7.118,-7.242 -7.19,-7.244 -2.602,0 -4.709,-2.107 -4.709,-4.697 0,-2.59 2.107,-4.697 4.696,-4.697 2.591,0 4.697,2.107 4.697,4.697 0,6.357 7.094,7.195 7.165,7.203 2.629,0.002 4.737,2.109 4.737,4.698 0,2.59 -2.108,4.697 -4.697,4.697 -6.879,0 -7.202,7.12 -7.205,7.192 0,6.369 7.094,7.207 7.165,7.215 2.629,0.002 4.737,2.109 4.737,4.699 0,6.357 7.094,7.195 7.165,7.202 h 0.003 c 6.393,0 7.23,-7.091 7.238,-7.163 0.003,-2.629 2.109,-4.736 4.7,-4.736 2.589,0 4.697,2.107 4.697,4.697 0,2.59 -2.108,4.697 -4.697,4.697 -6.881,0 -7.202,7.12 -7.205,7.192 0,6.369 7.094,7.207 7.166,7.215 h 0.002 c 6.395,0 7.232,-7.093 7.239,-7.164 0.002,-2.628 2.11,-4.736 4.699,-4.736 6.357,0 7.195,-7.093 7.203,-7.165 0.002,-6.919 -7.118,-7.241 -7.191,-7.243 -2.601,-10e-4 -4.709,-2.108 -4.709,-4.698 0,-2.589 2.108,-4.696 4.697,-4.696 2.589,0 4.696,2.107 4.696,4.696 0,6.357 7.095,7.195 7.166,7.203 2.629,0.002 4.736,2.109 4.736,4.699 C 4.697,-2.107 2.59,0 0,0" />
          </g>
          <g
             transform="translate(287.1284,163.8547)"
             id="g849">
            <path
               inkscape:connector-curvature="0"
               id="path851"
               style="fill:#395cb3;fill-opacity:1;fill-rule:nonzero;stroke:none"
               d="m 0,0 h -0.006 -0.006 c -6.881,0 -7.202,7.121 -7.205,7.192 0,2.602 -2.107,4.709 -4.697,4.709 -6.88,0 -7.201,7.12 -7.204,7.192 0,6.369 7.094,7.207 7.165,7.215 h 0.003 c 6.393,0 7.23,-7.092 7.238,-7.163 0.003,-2.629 2.109,-4.736 4.7,-4.736 6.357,0 7.195,-7.094 7.202,-7.165 C 7.192,0.325 0.072,0.002 0,0 m 23.79,23.802 c -2.589,0 -4.696,-2.107 -4.696,-4.697 0,-6.879 -7.12,-7.201 -7.193,-7.203 -6.892,-10e-4 -7.214,7.119 -7.216,7.191 0,6.369 7.093,7.207 7.165,7.215 2.629,0.003 4.735,2.109 4.735,4.699 0,2.59 -2.106,4.697 -4.696,4.697 -6.88,0 -7.202,7.12 -7.204,7.192 0,2.602 -2.108,4.709 -4.697,4.709 -2.591,0 -4.697,-2.107 -4.697,-4.697 0,-2.589 2.106,-4.697 4.697,-4.697 6.357,0 7.195,-7.093 7.202,-7.165 C 7.192,24.127 0.072,23.805 0,23.803 c -6.893,-0.001 -7.214,7.12 -7.217,7.192 0,2.602 -2.107,4.709 -4.697,4.709 -2.589,0 -4.696,-2.107 -4.696,-4.697 0,-6.88 -7.12,-7.202 -7.193,-7.204 -2.601,-0.001 -4.709,-2.108 -4.709,-4.698 0,-2.589 2.108,-4.696 4.697,-4.696 6.357,0 7.195,-7.094 7.203,-7.165 C -16.61,0.325 -23.73,0.002 -23.803,0 c -2.601,0 -4.709,-2.107 -4.709,-4.697 0,-6.88 -7.12,-7.201 -7.192,-7.204 -6.892,0 -7.214,7.12 -7.217,7.192 0,6.369 7.094,7.207 7.165,7.215 2.63,0.002 4.736,2.109 4.736,4.699 0,2.589 -2.106,4.696 -4.697,4.696 -6.879,0 -7.201,7.12 -7.204,7.192 0,2.602 -2.106,4.709 -4.696,4.709 -2.591,0 -4.697,-2.107 -4.697,-4.697 0,-2.589 2.106,-4.696 4.697,-4.696 6.355,0 7.194,-7.094 7.202,-7.165 0.002,-6.919 -7.118,-7.242 -7.19,-7.244 -2.603,0 -4.709,-2.107 -4.709,-4.697 0,-2.59 2.106,-4.697 4.697,-4.697 6.355,0 7.194,-7.093 7.202,-7.165 0.002,-2.629 2.109,-4.736 4.698,-4.736 2.591,0 4.697,2.107 4.697,4.697 0,6.356 7.094,7.194 7.166,7.202 2.628,0.002 4.736,2.109 4.736,4.699 0,6.357 7.094,7.195 7.165,7.203 h 0.003 c 6.393,0 7.23,-7.092 7.238,-7.164 0.003,-2.629 2.109,-4.736 4.7,-4.736 2.589,0 4.697,2.107 4.697,4.697 0,6.357 7.093,7.195 7.165,7.203 h 0.003 c 6.393,0 7.231,-7.092 7.239,-7.164 0.002,-2.629 2.109,-4.736 4.698,-4.736 2.59,0 4.697,2.107 4.697,4.697 0,2.59 -2.107,4.697 -4.697,4.697 -6.88,0 -7.202,7.121 -7.205,7.192 0,6.37 7.095,7.207 7.166,7.215 2.629,0.002 4.736,2.109 4.736,4.698 0,2.59 -2.107,4.697 -4.697,4.697" />
          </g>
          <g
             transform="translate(244.2075,171.0592)"
             id="g853">
            <path
               inkscape:connector-curvature="0"
               id="path855"
               style="fill:#395cb3;fill-opacity:1;fill-rule:nonzero;stroke:none"
               d="m 0,0 c 0,2.589 -2.106,4.697 -4.696,4.697 -2.591,0 -4.698,-2.108 -4.698,-4.697 0,-2.59 2.107,-4.697 4.698,-4.697 C -2.106,-4.697 0,-2.59 0,0" />
          </g>
          <g
             transform="translate(287.1167,175.756)"
             id="g857">
            <path
               inkscape:connector-curvature="0"
               id="path859"
               style="fill:#395cb3;fill-opacity:1;fill-rule:nonzero;stroke:none"
               d="m 0,0 c -6.881,0 -7.202,7.12 -7.205,7.192 0,2.602 -2.108,4.709 -4.697,4.709 -2.589,0 -4.697,-2.107 -4.697,-4.697 0,-2.589 2.108,-4.697 4.697,-4.697 6.356,0 7.194,-7.093 7.202,-7.165 0.003,-2.629 2.109,-4.736 4.7,-4.736 2.589,0 4.696,2.107 4.696,4.697 C 4.696,-2.107 2.589,0 0,0" />
          </g>
          <g
             transform="translate(306.2222,171.0592)"
             id="g861">
            <path
               inkscape:connector-curvature="0"
               id="path863"
               style="fill:#395cb3;fill-opacity:1;fill-rule:nonzero;stroke:none"
               d="m 0,0 c 0,-2.59 2.107,-4.697 4.696,-4.697 2.59,0 4.698,2.107 4.698,4.697 0,2.589 -2.108,4.697 -4.698,4.697 C 2.107,4.697 0,2.589 0,0" />
          </g>
          <g
             transform="translate(299.0171,163.8547)"
             id="g865">
            <path
               inkscape:connector-curvature="0"
               id="path867"
               style="fill:#395cb3;fill-opacity:1;fill-rule:nonzero;stroke:none"
               d="m 0,0 c -2.589,0 -4.696,-2.107 -4.696,-4.697 0,-6.88 -7.12,-7.202 -7.193,-7.204 -6.892,0 -7.214,7.12 -7.216,7.192 0,2.602 -2.108,4.709 -4.698,4.709 -2.589,0 -4.696,-2.107 -4.696,-4.697 0,-6.88 -7.12,-7.202 -7.192,-7.204 -2.602,0 -4.709,-2.107 -4.709,-4.697 0,-2.59 2.107,-4.697 4.696,-4.697 2.59,0 4.697,2.107 4.697,4.697 0,6.357 7.094,7.194 7.165,7.202 h 0.003 c 6.394,0 7.231,-7.092 7.238,-7.163 0.003,-6.919 -7.117,-7.241 -7.19,-7.243 -2.601,-0.001 -4.708,-2.108 -4.708,-4.698 0,-2.589 2.107,-4.696 4.696,-4.696 2.59,0 4.698,2.107 4.698,4.696 0,6.357 7.093,7.195 7.166,7.203 2.627,0.002 4.735,2.109 4.735,4.699 0,6.357 7.094,7.194 7.165,7.202 2.629,0.002 4.735,2.109 4.735,4.699 C 4.696,-2.107 2.59,0 0,0" />
          </g>
          <g
             transform="translate(279.9117,147.2565)"
             id="g869">
            <path
               inkscape:connector-curvature="0"
               id="path871"
               style="fill:#395cb3;fill-opacity:1;fill-rule:nonzero;stroke:none"
               d="M 0,0 C 0,2.59 -2.107,4.697 -4.697,4.697 -7.286,4.697 -9.394,2.59 -9.394,0 c 0,-2.59 2.108,-4.697 4.697,-4.697 C -2.107,-4.697 0,-2.59 0,0" />
          </g>
          <g
             transform="translate(299.0171,151.9533)"
             id="g873">
            <path
               inkscape:connector-curvature="0"
               id="path875"
               style="fill:#395cb3;fill-opacity:1;fill-rule:nonzero;stroke:none"
               d="m 0,0 c -2.589,0 -4.696,-2.107 -4.696,-4.697 0,-2.59 2.107,-4.697 4.696,-4.697 2.59,0 4.696,2.107 4.696,4.697 C 4.696,-2.107 2.59,0 0,0" />
          </g>
          <g
             transform="translate(287.1167,138.3654)"
             id="g877">
            <path
               inkscape:connector-curvature="0"
               id="path879"
               style="fill:#395cb3;fill-opacity:1;fill-rule:nonzero;stroke:none"
               d="m 0,0 c -1.66,0 -3.011,-1.351 -3.011,-3.01 0,-1.66 1.351,-3.01 3.011,-3.01 1.659,0 3.01,1.35 3.01,3.01 C 3.01,-1.351 1.659,0 0,0" />
          </g>
          <g
             transform="translate(263.313,138.3654)"
             id="g881">
            <path
               inkscape:connector-curvature="0"
               id="path883"
               style="fill:#395cb3;fill-opacity:1;fill-rule:nonzero;stroke:none"
               d="m 0,0 c -1.659,0 -3.01,-1.351 -3.01,-3.01 0,-1.66 1.351,-3.01 3.01,-3.01 1.66,0 3.011,1.35 3.011,3.01 C 3.011,-1.351 1.66,0 0,0" />
          </g>
          <g
             transform="translate(310.9185,150.2668)"
             id="g885">
            <path
               inkscape:connector-curvature="0"
               id="path887"
               style="fill:#395cb3;fill-opacity:1;fill-rule:nonzero;stroke:none"
               d="m 0,0 c -1.659,0 -3.01,-1.351 -3.01,-3.01 0,-1.66 1.351,-3.011 3.01,-3.011 1.66,0 3.011,1.351 3.011,3.011 C 3.011,-1.351 1.66,0 0,0" />
          </g>
          <g
             transform="translate(239.5112,150.2668)"
             id="g889">
            <path
               inkscape:connector-curvature="0"
               id="path891"
               style="fill:#395cb3;fill-opacity:1;fill-rule:nonzero;stroke:none"
               d="m 0,0 c -1.66,0 -3.01,-1.351 -3.01,-3.01 0,-1.66 1.35,-3.011 3.01,-3.011 1.659,0 3.01,1.351 3.01,3.011 C 3.01,-1.351 1.659,0 0,0" />
          </g>
          <g
             transform="translate(239.5112,203.7531)"
             id="g893">
            <path
               inkscape:connector-curvature="0"
               id="path895"
               style="fill:#395cb3;fill-opacity:1;fill-rule:nonzero;stroke:none"
               d="M 0,0 C 1.659,0 3.01,1.35 3.01,3.01 3.01,4.669 1.659,6.02 0,6.02 -1.66,6.02 -3.01,4.669 -3.01,3.01 -3.01,1.35 -1.66,0 0,0" />
          </g>
          <g
             transform="translate(251.4116,215.654)"
             id="g897">
            <path
               inkscape:connector-curvature="0"
               id="path899"
               style="fill:#395cb3;fill-opacity:1;fill-rule:nonzero;stroke:none"
               d="M 0,0 C 1.66,0 3.011,1.351 3.011,3.01 3.011,4.67 1.66,6.021 0,6.021 -1.659,6.021 -3.01,4.67 -3.01,3.01 -3.01,1.351 -1.659,0 0,0" />
          </g>
          <g
             transform="translate(299.0171,215.654)"
             id="g901">
            <path
               inkscape:connector-curvature="0"
               id="path903"
               style="fill:#395cb3;fill-opacity:1;fill-rule:nonzero;stroke:none"
               d="M 0,0 C 1.66,0 3.011,1.351 3.011,3.01 3.011,4.67 1.66,6.021 0,6.021 -1.659,6.021 -3.01,4.67 -3.01,3.01 -3.01,1.351 -1.659,0 0,0" />
          </g>
          <g
             transform="translate(310.9185,203.7531)"
             id="g905">
            <path
               inkscape:connector-curvature="0"
               id="path907"
               style="fill:#395cb3;fill-opacity:1;fill-rule:nonzero;stroke:none"
               d="M 0,0 C 1.66,0 3.011,1.35 3.011,3.01 3.011,4.669 1.66,6.02 0,6.02 -1.659,6.02 -3.01,4.669 -3.01,3.01 -3.01,1.35 -1.659,0 0,0" />
          </g>
          <g
             transform="translate(275.2144,240.1188)"
             id="g909">
            <path
               inkscape:connector-curvature="0"
               id="path911"
               style="fill:#395cb3;fill-opacity:1;fill-rule:nonzero;stroke:none"
               d="M 0,0 C 0.73,0 1.324,0.593 1.324,1.323 1.324,2.053 0.73,2.646 0,2.646 -0.729,2.646 -1.322,2.053 -1.322,1.323 -1.322,0.593 -0.729,0 0,0" />
          </g>
          <g
             transform="translate(287.1167,229.2424)"
             id="g913">
            <path
               inkscape:connector-curvature="0"
               id="path915"
               style="fill:#395cb3;fill-opacity:1;fill-rule:nonzero;stroke:none"
               d="M 0,0 C 0.729,0 1.322,0.594 1.322,1.323 1.322,2.053 0.729,2.646 0,2.646 -0.729,2.646 -1.323,2.053 -1.323,1.323 -1.323,0.594 -0.729,0 0,0" />
          </g>
          <g
             transform="translate(263.313,229.2424)"
             id="g917">
            <path
               inkscape:connector-curvature="0"
               id="path919"
               style="fill:#395cb3;fill-opacity:1;fill-rule:nonzero;stroke:none"
               d="M 0,0 C 0.73,0 1.324,0.594 1.324,1.323 1.324,2.053 0.73,2.646 0,2.646 -0.729,2.646 -1.323,2.053 -1.323,1.323 -1.323,0.594 -0.729,0 0,0" />
          </g>
          <g
             transform="translate(251.4116,138.3654)"
             id="g921">
            <path
               inkscape:connector-curvature="0"
               id="path923"
               style="fill:#395cb3;fill-opacity:1;fill-rule:nonzero;stroke:none"
               d="m 0,0 c -0.729,0 -1.322,-0.594 -1.322,-1.323 0,-0.73 0.593,-1.323 1.322,-1.323 0.73,0 1.324,0.593 1.324,1.323 C 1.324,-0.594 0.73,0 0,0" />
          </g>
          <g
             transform="translate(227.4556,174.0695)"
             id="g925">
            <path
               inkscape:connector-curvature="0"
               id="path927"
               style="fill:#395cb3;fill-opacity:1;fill-rule:nonzero;stroke:none"
               d="m 0,0 c -1.659,0 -3.011,-1.351 -3.011,-3.01 0,-1.66 1.352,-3.011 3.011,-3.011 1.66,0 3.011,1.351 3.011,3.011 C 3.011,-1.351 1.66,0 0,0" />
          </g>
          <g
             transform="translate(227.4556,185.9704)"
             id="g929">
            <path
               inkscape:connector-curvature="0"
               id="path931"
               style="fill:#395cb3;fill-opacity:1;fill-rule:nonzero;stroke:none"
               d="m 0,0 c -1.659,0 -3.011,-1.351 -3.011,-3.01 0,-1.66 1.352,-3.01 3.011,-3.01 1.66,0 3.011,1.35 3.011,3.01 C 3.011,-1.351 1.66,0 0,0" />
          </g>
          <g
             transform="translate(229.1421,160.4811)"
             id="g933">
            <path
               inkscape:connector-curvature="0"
               id="path935"
               style="fill:#395cb3;fill-opacity:1;fill-rule:nonzero;stroke:none"
               d="m 0,0 c -0.729,0 -1.323,-0.593 -1.323,-1.323 0,-0.73 0.594,-1.323 1.323,-1.323 0.73,0 1.324,0.593 1.324,1.323 C 1.324,-0.593 0.73,0 0,0" />
          </g>
          <g
             transform="translate(229.1421,196.1847)"
             id="g937">
            <path
               inkscape:connector-curvature="0"
               id="path939"
               style="fill:#395cb3;fill-opacity:1;fill-rule:nonzero;stroke:none"
               d="m 0,0 c -0.729,0 -1.323,-0.593 -1.323,-1.323 0,-0.73 0.594,-1.323 1.323,-1.323 0.73,0 1.324,0.593 1.324,1.323 C 1.324,-0.593 0.73,0 0,0" />
          </g>
          <g
             transform="translate(322.9742,174.0695)"
             id="g941">
            <path
               inkscape:connector-curvature="0"
               id="path943"
               style="fill:#395cb3;fill-opacity:1;fill-rule:nonzero;stroke:none"
               d="m 0,0 c -1.66,0 -3.01,-1.351 -3.01,-3.01 0,-1.66 1.35,-3.011 3.01,-3.011 1.659,0 3.01,1.351 3.01,3.011 C 3.01,-1.351 1.659,0 0,0" />
          </g>
          <g
             transform="translate(322.9742,179.9504)"
             id="g945">
            <path
               inkscape:connector-curvature="0"
               id="path947"
               style="fill:#395cb3;fill-opacity:1;fill-rule:nonzero;stroke:none"
               d="M 0,0 C 1.659,0 3.01,1.35 3.01,3.01 3.01,4.669 1.659,6.02 0,6.02 -1.66,6.02 -3.01,4.669 -3.01,3.01 -3.01,1.35 -1.66,0 0,0" />
          </g>
          <g
             transform="translate(321.2876,160.4811)"
             id="g949">
            <path
               inkscape:connector-curvature="0"
               id="path951"
               style="fill:#395cb3;fill-opacity:1;fill-rule:nonzero;stroke:none"
               d="m 0,0 c -0.729,0 -1.323,-0.593 -1.323,-1.323 0,-0.73 0.594,-1.323 1.323,-1.323 0.729,0 1.322,0.593 1.322,1.323 C 1.322,-0.593 0.729,0 0,0" />
          </g>
          <g
             transform="translate(321.2876,193.5383)"
             id="g953">
            <path
               inkscape:connector-curvature="0"
               id="path955"
               style="fill:#395cb3;fill-opacity:1;fill-rule:nonzero;stroke:none"
               d="M 0,0 C 0.729,0 1.322,0.594 1.322,1.324 1.322,2.053 0.729,2.646 0,2.646 -0.729,2.646 -1.323,2.053 -1.323,1.324 -1.323,0.594 -0.729,0 0,0" />
          </g>
          <g
             transform="translate(299.0171,138.3654)"
             id="g957">
            <path
               inkscape:connector-curvature="0"
               id="path959"
               style="fill:#395cb3;fill-opacity:1;fill-rule:nonzero;stroke:none"
               d="m 0,0 c -0.729,0 -1.323,-0.594 -1.323,-1.323 0,-0.73 0.594,-1.323 1.323,-1.323 0.729,0 1.323,0.593 1.323,1.323 C 1.323,-0.594 0.729,0 0,0" />
          </g>
        </g>
      </g>
    </g>
  </g>
</svg>
