<?xml version="1.0" encoding="UTF-8" standalone="no"?>
<svg
   xmlns:dc="http://purl.org/dc/elements/1.1/"
   xmlns:cc="http://creativecommons.org/ns#"
   xmlns:rdf="http://www.w3.org/1999/02/22-rdf-syntax-ns#"
   xmlns:svg="http://www.w3.org/2000/svg"
   xmlns="http://www.w3.org/2000/svg"
   xmlns:sodipodi="http://sodipodi.sourceforge.net/DTD/sodipodi-0.dtd"
   xmlns:inkscape="http://www.inkscape.org/namespaces/inkscape"
   width="193.9957mm"
   height="72.368774mm"
   viewBox="0 0 193.9957 72.368774"
   version="1.1"
   id="svg8"
   inkscape:version="1.0.1 (3bc2e813f5, 2020-09-07)"
   sodipodi:docname="liqo-logo-white.svg">
  <defs
     id="defs2">
    <clipPath
       id="clipPath18"
       clipPathUnits="userSpaceOnUse">
      <path
         id="path16"
         d="M 0,368.504 H 368.504 V 0 H 0 Z"
         inkscape:connector-curvature="0" />
    </clipPath>
  </defs>
  <sodipodi:namedview
     id="base"
     pagecolor="#ffffff"
     bordercolor="#666666"
     borderopacity="1.0"
     inkscape:pageopacity="0.0"
     inkscape:pageshadow="2"
     inkscape:zoom="1.4"
     inkscape:cx="401.37332"
     inkscape:cy="132.55263"
     inkscape:document-units="mm"
     inkscape:current-layer="layer1"
     inkscape:document-rotation="0"
     showgrid="false"
     inkscape:window-width="1267"
     inkscape:window-height="1040"
     inkscape:window-x="650"
     inkscape:window-y="0"
     inkscape:window-maximized="0" />
  <metadata
     id="metadata5">
    <rdf:RDF>
      <cc:Work
         rdf:about="">
        <dc:format>image/svg+xml</dc:format>
        <dc:type
           rdf:resource="http://purl.org/dc/dcmitype/StillImage" />
        <dc:title />
      </cc:Work>
    </rdf:RDF>
  </metadata>
  <g
     inkscape:label="Layer 1"
     inkscape:groupmode="layer"
     id="layer1"
     transform="translate(-7.323578,-98.375136)">
    <g
       clip-path="url(#clipPath18)"
       id="g14"
       transform="matrix(0.63070099,0,0,-0.63070099,-4.2793411,250.76738)"
       style="fill:#ffffff">
      <g
         transform="translate(109.9732,143.9006)"
         id="g20"
         style="fill:#ffffff">
        <path
           id="path22"
           style="fill:#ffffff;fill-opacity:1;fill-rule:nonzero;stroke:none"
           d="m -24.123338,0 c -2.828,0 -5.251,-1.644 -6.432,-4.014 h -16.082 c -9.223,0 -17.896,3.592 -24.419,10.116 -6.523,6.523 -10.115,15.195 -10.115,24.419 v 53.561 c 2.37,1.181 4.014,3.604 4.014,6.431 0,3.982 -3.229,7.21 -7.21,7.21 -3.982,0 -7.209,-3.228 -7.209,-7.21 0,-2.827 1.643,-5.25 4.014,-6.431 V 30.521 c 0,-10.931 4.256,-21.208 11.987,-28.939 7.729,-7.731 18.009,-11.988 28.938,-11.988 h 16.082 c 1.182,-2.37 3.604,-4.013 6.432,-4.013 3.981,0 7.209,3.228 7.209,7.209 0,3.981 -3.228,7.21 -7.209,7.21"
           inkscape:connector-curvature="0" />
      </g>
      <g
         transform="translate(101.2232,167.5373)"
         id="g24"
         style="fill:#ffffff">
        <path
           id="path26"
           style="fill:#ffffff;fill-opacity:1;fill-rule:nonzero;stroke:none"
           d="m 4.6171423,-31.151754 c 0,-3.981 3.229,-7.21 7.2099997,-7.21 3.981,0 7.21,3.229 7.21,7.21 0,2.827 -1.644,5.25 -4.013,6.431 V 60.445 c 2.369,1.181 4.013,3.604 4.013,6.431 0,3.982 -3.229,7.21 -7.21,7.21 -3.9809997,0 -7.2099997,-3.228 -7.2099997,-7.21 0,-2.827 1.645,-5.25 4.015,-6.431 v -85.164754 c -2.37,-1.182 -4.015,-3.604 -4.015,-6.432"
           inkscape:connector-curvature="0"
           sodipodi:nodetypes="cssccsssccc" />
      </g>
      <g
         transform="translate(216.9361,139.1882)"
         id="g28"
         style="fill:#ffffff">
        <path
           id="path30"
           style="fill:#ffffff;fill-opacity:1;fill-rule:nonzero;stroke:none"
           d="m 0,0 c -1.999,2 -4.875,2.55 -7.386,1.709 l -9.205,9.206 c -1.198,1.198 -3.321,1.198 -4.519,0 -6.548,-6.548 -15.254,-10.154 -24.516,-10.154 -19.115,0 -34.669,15.552 -34.669,34.668 v 25.226 c 0,19.116 15.554,34.669 34.669,34.669 19.116,0 34.67,-15.553 34.67,-34.669 V 35.429 c 0,-0.219 -0.029,-0.436 -0.033,-0.655 -2.04,-0.762 -3.724,-2.413 -4.398,-4.66 -1.143,-3.814 1.023,-7.833 4.837,-8.976 3.814,-1.143 7.833,1.023 8.976,4.836 0.948,3.163 -0.401,6.443 -3.058,8.13 0.015,0.443 0.069,0.882 0.069,1.325 v 25.226 c 0,22.641 -18.422,41.061 -41.063,41.061 -22.641,0 -41.062,-18.42 -41.062,-41.061 V 35.429 c 0,-22.64 18.421,-41.06 41.062,-41.06 9.897,0 19.258,3.477 26.69,9.852 l 7.031,-7.031 c -0.841,-2.511 -0.29,-5.387 1.709,-7.386 2.815,-2.816 7.381,-2.816 10.196,0 C 2.815,-7.381 2.815,-2.815 0,0"
           inkscape:connector-curvature="0" />
      </g>
      <g
         transform="translate(284.649,171.488)"
         id="g32"
         style="fill:#ffffff">
        <path
           id="path34"
           style="fill:#ffffff;fill-opacity:1;fill-rule:nonzero;stroke:none"
           d="M 0,0 H -0.004 -0.01 c -4.619,0 -4.835,4.777 -4.836,4.826 0,1.69 -1.367,3.057 -3.048,3.057 -4.617,0 -4.834,4.778 -4.835,4.826 0,4.278 4.754,4.84 4.803,4.845 h 0.003 c 4.297,0 4.859,-4.754 4.864,-4.802 0.002,-1.712 1.369,-3.08 3.049,-3.08 4.268,0 4.829,-4.755 4.834,-4.803 C 4.826,0.218 0.049,0.002 0,0 m 31.523,0 c -4.619,0 -4.835,4.777 -4.836,4.826 0,1.69 -1.368,3.057 -3.048,3.057 -1.68,0 -3.046,-1.367 -3.046,-3.047 0,-4.618 -4.778,-4.834 -4.826,-4.836 -4.629,0 -4.845,4.777 -4.847,4.826 0,4.278 4.756,4.84 4.804,4.845 1.713,0.001 3.079,1.369 3.079,3.048 0,1.68 -1.366,3.047 -3.046,3.047 -1.681,0 -3.047,-1.367 -3.047,-3.047 0,-4.618 -4.778,-4.834 -4.826,-4.836 -4.629,0 -4.845,4.778 -4.847,4.826 0,4.278 4.755,4.84 4.804,4.845 1.713,0.002 3.079,1.368 3.079,3.048 0,1.68 -1.366,3.047 -3.047,3.047 -4.618,0 -4.834,4.778 -4.836,4.826 0,1.691 -1.366,3.058 -3.047,3.058 -1.68,0 -3.047,-1.367 -3.047,-3.048 0,-1.679 1.367,-3.047 3.047,-3.047 4.268,0 4.829,-4.755 4.834,-4.803 C 4.826,15.984 0.049,15.768 0,15.766 c -4.629,0 -4.845,4.777 -4.846,4.826 0,1.69 -1.367,3.057 -3.048,3.057 -1.679,0 -3.046,-1.367 -3.046,-3.047 0,-4.618 -4.778,-4.834 -4.826,-4.836 -1.69,0 -3.056,-1.367 -3.056,-3.047 0,-1.679 1.366,-3.047 3.046,-3.047 4.268,0 4.829,-4.755 4.835,-4.803 0.001,-4.651 -4.777,-4.867 -4.825,-4.869 -1.69,0 -3.056,-1.367 -3.056,-3.047 0,-4.618 -4.779,-4.834 -4.826,-4.836 -4.629,0 -4.845,4.777 -4.847,4.825 0,4.278 4.755,4.84 4.804,4.846 1.712,10e-4 3.079,1.368 3.079,3.048 0,1.68 -1.367,3.047 -3.047,3.047 -4.618,0 -4.834,4.778 -4.836,4.826 0,1.69 -1.366,3.057 -3.047,3.057 -1.681,0 -3.047,-1.367 -3.047,-3.047 0,-1.679 1.366,-3.047 3.047,-3.047 4.268,0 4.829,-4.755 4.835,-4.803 0.001,-4.651 -4.776,-4.867 -4.825,-4.869 -4.629,0 -4.845,4.777 -4.846,4.826 0,1.69 -1.367,3.057 -3.048,3.057 h -0.842 l 0.056,0.048 c -3.618,0.467 -4.023,4.21 -4.059,4.662 l -0.002,0.034 0.01,0.083 c 10e-4,4.277 4.756,4.839 4.805,4.844 1.713,0.002 3.08,1.368 3.08,3.048 0,1.68 -1.367,3.047 -3.048,3.047 -1.679,0 -3.047,-1.367 -3.047,-3.047 0,-4.618 -4.777,-4.834 -4.825,-4.836 -1.691,0 -3.057,-1.367 -3.057,-3.047 0,-1.671 1.36,-3.037 3.032,-3.045 l 0.731,-0.004 -0.043,-0.042 c 2.809,-0.371 3.747,-2.979 4.031,-4.169 l 0.114,0.113 0.02,-0.716 C -42.473,0.218 -47.25,0.002 -47.298,0 c -1.691,0 -3.057,-1.367 -3.057,-3.047 0,-1.68 1.366,-3.047 3.046,-3.047 1.681,0 3.047,1.367 3.047,3.047 0,4.267 4.755,4.829 4.804,4.835 h 0.003 c 4.297,0 4.858,-4.754 4.864,-4.803 0.002,-1.712 1.368,-3.079 3.049,-3.079 4.268,0 4.829,-4.755 4.835,-4.803 0.001,-4.651 -4.776,-4.867 -4.825,-4.869 -4.629,0 -4.845,4.777 -4.846,4.826 0,1.69 -1.367,3.057 -3.048,3.057 -1.679,0 -3.047,-1.367 -3.047,-3.047 0,-1.68 1.368,-3.047 3.047,-3.047 4.268,0 4.829,-4.755 4.835,-4.804 0.002,-1.712 1.368,-3.079 3.049,-3.079 1.681,0 3.047,1.367 3.047,3.047 0,4.267 4.755,4.829 4.804,4.834 h 0.002 c 4.297,0 4.859,-4.753 4.865,-4.802 0.002,-1.712 1.368,-3.079 3.048,-3.079 1.68,0 3.047,1.367 3.047,3.047 0,4.267 4.754,4.829 4.803,4.834 1.713,0.002 3.08,1.369 3.08,3.049 0,1.68 -1.367,3.047 -3.048,3.047 -1.679,0 -3.046,-1.367 -3.046,-3.047 0,-4.618 -4.778,-4.834 -4.826,-4.836 -4.629,0 -4.845,4.777 -4.846,4.826 0,4.277 4.755,4.839 4.803,4.845 1.713,10e-4 3.08,1.368 3.08,3.048 0,4.267 4.754,4.829 4.803,4.835 h 0.003 c 4.297,0 4.859,-4.754 4.864,-4.803 0.002,-1.712 1.369,-3.079 3.049,-3.079 1.681,0 3.047,1.367 3.047,3.047 0,4.267 4.755,4.829 4.804,4.835 h 0.002 c 4.298,0 4.859,-4.754 4.865,-4.803 0.002,-1.712 1.368,-3.079 3.049,-3.079 4.267,0 4.829,-4.755 4.834,-4.803 0.002,-4.651 -4.776,-4.867 -4.824,-4.869 -1.691,0 -3.057,-1.367 -3.057,-3.047 0,-1.68 1.366,-3.047 3.047,-3.047 1.68,0 3.046,1.367 3.046,3.047 0,4.267 4.755,4.829 4.803,4.834 1.713,0.002 3.081,1.369 3.081,3.049 0,1.68 -1.368,3.047 -3.048,3.047 -4.618,0 -4.834,4.777 -4.836,4.825 0,4.278 4.755,4.84 4.803,4.846 h 0.002 c 4.299,0 4.86,-4.754 4.866,-4.803 0.002,-1.712 1.369,-3.079 3.049,-3.079 1.68,0 3.046,1.367 3.046,3.047 0,1.68 -1.366,3.047 -3.046,3.047"
           inkscape:connector-curvature="0" />
      </g>
      <g
         transform="translate(253.1168,195.1374)"
         id="g36"
         style="fill:#ffffff">
        <path
           id="path38"
           style="fill:#ffffff;fill-opacity:1;fill-rule:nonzero;stroke:none"
           d="m 0,0 c -4.629,0 -4.845,4.777 -4.846,4.826 v 0.01 c 0,4.268 4.755,4.83 4.804,4.835 H -0.04 C 4.258,9.671 4.819,4.917 4.825,4.869 4.826,0.218 0.049,0.002 0,0 m 63.056,0 c -4.619,0 -4.835,4.777 -4.837,4.826 0,1.69 -1.367,3.057 -3.048,3.057 -4.617,0 -4.834,4.778 -4.836,4.826 0,1.69 -1.366,3.057 -3.046,3.057 -1.681,0 -3.047,-1.367 -3.047,-3.047 0,-4.618 -4.778,-4.834 -4.826,-4.836 -4.629,0 -4.845,4.778 -4.847,4.826 0,1.69 -1.366,3.057 -3.047,3.057 -1.68,0 -3.046,-1.367 -3.046,-3.047 0,-4.618 -4.778,-4.834 -4.827,-4.836 -4.628,0 -4.844,4.778 -4.846,4.826 0,1.69 -1.366,3.057 -3.047,3.057 -1.68,0 -3.046,-1.367 -3.046,-3.047 0,-1.679 1.366,-3.047 3.046,-3.047 4.268,0 4.829,-4.755 4.835,-4.803 C 20.592,0.218 15.814,0.002 15.767,0 14.076,0 12.71,-1.367 12.71,-3.047 c 0,-4.619 -4.778,-4.834 -4.826,-4.836 -4.629,0 -4.845,4.777 -4.847,4.825 0,4.278 4.755,4.84 4.804,4.846 1.712,10e-4 3.079,1.368 3.079,3.048 0,1.68 -1.367,3.047 -3.047,3.047 -4.618,0 -4.834,4.778 -4.836,4.826 0,1.69 -1.366,3.057 -3.047,3.057 -1.68,0 -3.047,-1.367 -3.047,-3.047 0,-4.618 -4.777,-4.834 -4.826,-4.836 -1.69,0 -3.057,-1.367 -3.057,-3.047 0,-1.68 1.367,-3.047 3.046,-3.047 4.268,0 4.83,-4.755 4.835,-4.804 0.002,-4.651 -4.775,-4.866 -4.824,-4.868 -1.69,0 -3.057,-1.367 -3.057,-3.047 0,-1.68 1.367,-3.047 3.046,-3.047 4.268,0 4.83,-4.755 4.835,-4.804 0.002,-1.712 1.369,-3.079 3.049,-3.079 1.681,0 3.047,1.367 3.047,3.047 0,1.68 -1.366,3.047 -3.047,3.047 -4.619,0 -4.835,4.777 -4.836,4.826 0,4.277 4.755,4.839 4.804,4.845 h 0.002 c 4.298,0 4.859,-4.755 4.865,-4.802 10e-4,-1.713 1.368,-3.08 3.048,-3.08 4.268,0 4.829,-4.755 4.835,-4.804 0.002,-4.651 -4.776,-4.866 -4.824,-4.868 -1.691,0 -3.058,-1.368 -3.058,-3.047 0,-1.68 1.367,-3.047 3.047,-3.047 1.68,0 3.047,1.367 3.047,3.047 0,4.267 4.755,4.829 4.804,4.834 1.713,0.002 3.079,1.369 3.079,3.049 0,1.68 -1.366,3.047 -3.047,3.047 -4.618,0 -4.835,4.777 -4.836,4.826 0,4.277 4.755,4.839 4.804,4.845 1.713,10e-4 3.079,1.368 3.079,3.048 0,4.267 4.755,4.829 4.803,4.835 h 0.003 c 4.297,0 4.859,-4.754 4.865,-4.803 0.002,-1.712 1.368,-3.079 3.048,-3.079 1.681,0 3.047,1.367 3.047,3.047 0,1.68 -1.366,3.047 -3.047,3.047 -4.619,0 -4.834,4.777 -4.835,4.826 0,4.278 4.754,4.84 4.803,4.845 h 0.002 c 4.298,0 4.86,-4.754 4.864,-4.802 0.002,-1.713 1.37,-3.08 3.049,-3.08 4.268,0 4.829,-4.755 4.835,-4.804 0.002,-4.651 -4.776,-4.866 -4.824,-4.868 -1.69,0 -3.058,-1.367 -3.058,-3.047 0,-1.68 1.368,-3.047 3.047,-3.047 1.681,0 3.047,1.367 3.047,3.047 0,4.267 4.756,4.829 4.804,4.835 h 0.003 c 4.298,0 4.859,-4.755 4.864,-4.802 0.002,-4.652 -4.775,-4.867 -4.824,-4.869 -1.691,0 -3.057,-1.367 -3.057,-3.047 0,-1.68 1.366,-3.047 3.047,-3.047 1.68,0 3.046,1.367 3.046,3.047 0,4.267 4.755,4.829 4.804,4.834 1.713,0.002 3.08,1.369 3.08,3.049 0,1.68 -1.367,3.047 -3.048,3.047 -4.617,0 -4.834,4.777 -4.836,4.825 0,1.691 -1.366,3.058 -3.046,3.058 -4.619,0 -4.835,4.777 -4.837,4.826 0,4.278 4.756,4.84 4.804,4.845 h 0.003 c 4.298,0 4.859,-4.754 4.864,-4.802 0.002,-1.713 1.368,-3.08 3.048,-3.08 4.268,0 4.829,-4.755 4.835,-4.804 0.002,-1.712 1.369,-3.079 3.05,-3.079 1.679,0 3.046,1.367 3.046,3.047 0,1.68 -1.367,3.047 -3.046,3.047"
           inkscape:connector-curvature="0" />
      </g>
      <g
         transform="translate(316.1725,198.0436)"
         id="g40"
         style="fill:#ffffff">
        <path
           id="path42"
           style="fill:#ffffff;fill-opacity:1;fill-rule:nonzero;stroke:none"
           d="M 0,0 C 1.063,0 1.93,0.866 1.93,1.93 1.93,2.994 1.063,3.859 0,3.859 -1.064,3.859 -1.93,2.994 -1.93,1.93 -1.93,0.866 -1.064,0 0,0"
           inkscape:connector-curvature="0" />
      </g>
      <g
         transform="translate(308.2877,146.7214)"
         id="g44"
         style="fill:#ffffff">
        <path
           id="path46"
           style="fill:#ffffff;fill-opacity:1;fill-rule:nonzero;stroke:none"
           d="m 0,0 c -1.063,0 -1.93,-0.866 -1.93,-1.929 0,-1.065 0.867,-1.93 1.93,-1.93 1.064,0 1.93,0.865 1.93,1.93 C 1.93,-0.866 1.064,0 0,0"
           inkscape:connector-curvature="0" />
      </g>
      <g
         transform="translate(245.2232,146.7214)"
         id="g48"
         style="fill:#ffffff">
        <path
           id="path50"
           style="fill:#ffffff;fill-opacity:1;fill-rule:nonzero;stroke:none"
           d="m 0,0 c -1.063,0 -1.93,-0.866 -1.93,-1.929 0,-1.065 0.867,-1.93 1.93,-1.93 1.064,0 1.93,0.865 1.93,1.93 C 1.93,-0.866 1.064,0 0,0"
           inkscape:connector-curvature="0" />
      </g>
      <g
         transform="translate(276.7555,237.4592)"
         id="g52"
         style="fill:#ffffff">
        <path
           id="path54"
           style="fill:#ffffff;fill-opacity:1;fill-rule:nonzero;stroke:none"
           d="M 0,0 C 1.064,0 1.93,0.866 1.93,1.93 1.93,2.994 1.064,3.859 0,3.859 -1.063,3.859 -1.93,2.994 -1.93,1.93 -1.93,0.866 -1.063,0 0,0"
           inkscape:connector-curvature="0" />
      </g>
      <g
         transform="translate(268.8727,229.5763)"
         id="g56"
         style="fill:#ffffff">
        <path
           id="path58"
           style="fill:#ffffff;fill-opacity:1;fill-rule:nonzero;stroke:none"
           d="M 0,0 C 1.064,0 1.93,0.866 1.93,1.93 1.93,2.994 1.064,3.859 0,3.859 -1.064,3.859 -1.93,2.994 -1.93,1.93 -1.93,0.866 -1.064,0 0,0"
           inkscape:connector-curvature="0" />
      </g>
      <g
         transform="translate(284.6393,229.5763)"
         id="g60"
         style="fill:#ffffff">
        <path
           id="path62"
           style="fill:#ffffff;fill-opacity:1;fill-rule:nonzero;stroke:none"
           d="M 0,0 C 1.064,0 1.93,0.866 1.93,1.93 1.93,2.994 1.064,3.859 0,3.859 -1.064,3.859 -1.93,2.994 -1.93,1.93 -1.93,0.866 -1.064,0 0,0"
           inkscape:connector-curvature="0" />
      </g>
      <g
         transform="translate(260.9898,221.693)"
         id="g64"
         style="fill:#ffffff">
        <path
           id="path66"
           style="fill:#ffffff;fill-opacity:1;fill-rule:nonzero;stroke:none"
           d="M 0,0 C 1.064,0 1.93,0.866 1.93,1.93 1.93,2.994 1.064,3.859 0,3.859 -1.063,3.859 -1.93,2.994 -1.93,1.93 -1.93,0.866 -1.063,0 0,0"
           inkscape:connector-curvature="0" />
      </g>
      <g
         transform="translate(268.8727,220.5759)"
         id="g68"
         style="fill:#ffffff">
        <path
           id="path70"
           style="fill:#ffffff;fill-opacity:1;fill-rule:nonzero;stroke:none"
           d="m 0,0 c 4.269,0 4.829,-4.756 4.835,-4.804 0.001,-1.712 1.368,-3.079 3.048,-3.079 1.68,0 3.048,1.367 3.048,3.047 0,1.68 -1.368,3.047 -3.048,3.047 -4.617,0 -4.834,4.777 -4.836,4.826 0,4.277 4.755,4.839 4.804,4.845 1.712,0.001 3.08,1.368 3.08,3.048 0,1.68 -1.368,3.047 -3.048,3.047 -1.68,0 -3.047,-1.367 -3.047,-3.047 C 4.836,6.312 0.059,6.096 0.011,6.094 -1.68,6.094 -3.046,4.727 -3.046,3.047 -3.046,1.367 -1.68,0 0,0"
           inkscape:connector-curvature="0" />
      </g>
      <g
         transform="translate(273.7086,223.6227)"
         id="g72"
         style="fill:#ffffff">
        <path
           id="path74"
           style="fill:#ffffff;fill-opacity:1;fill-rule:nonzero;stroke:none"
           d="m 0,0 c 0,-1.68 1.367,-3.047 3.047,-3.047 1.681,0 3.048,1.367 3.048,3.047 0,1.68 -1.367,3.047 -3.048,3.047 C 1.367,3.047 0,1.68 0,0"
           inkscape:connector-curvature="0" />
      </g>
      <g
         transform="translate(284.6393,220.5759)"
         id="g76"
         style="fill:#ffffff">
        <path
           id="path78"
           style="fill:#ffffff;fill-opacity:1;fill-rule:nonzero;stroke:none"
           d="M 0,0 0.023,-0.002 V 0 C 0.081,0 0.138,-0.001 0.192,-0.002 H 0.776 L 0.73,-0.046 C 4.123,-0.507 4.775,-4.242 4.843,-4.693 L 4.849,-4.737 4.838,-4.83 c -0.002,-1.686 1.365,-3.053 3.045,-3.053 1.68,0 3.047,1.367 3.047,3.047 0,1.668 -1.358,3.034 -3.027,3.044 l -0.73,0.005 0.037,0.037 c -3,0.345 -3.83,2.91 -4.057,4.137 L 3.07,2.303 3.045,3.021 C 3.047,4.727 1.681,6.094 0,6.094 -1.681,6.094 -3.047,4.727 -3.047,3.047 -3.047,1.367 -1.681,0 0,0"
           inkscape:connector-curvature="0" />
      </g>
      <g
         transform="translate(292.5221,221.693)"
         id="g80"
         style="fill:#ffffff">
        <path
           id="path82"
           style="fill:#ffffff;fill-opacity:1;fill-rule:nonzero;stroke:none"
           d="M 0,0 C 1.064,0 1.93,0.866 1.93,1.93 1.93,2.994 1.064,3.859 0,3.859 -1.063,3.859 -1.93,2.994 -1.93,1.93 -1.93,0.866 -1.063,0 0,0"
           inkscape:connector-curvature="0" />
      </g>
      <g
         transform="translate(253.107,213.8097)"
         id="g84"
         style="fill:#ffffff">
        <path
           id="path86"
           style="fill:#ffffff;fill-opacity:1;fill-rule:nonzero;stroke:none"
           d="M 0,0 C 1.064,0 1.93,0.866 1.93,1.93 1.93,2.994 1.064,3.859 0,3.859 -1.064,3.859 -1.93,2.994 -1.93,1.93 -1.93,0.866 -1.064,0 0,0"
           inkscape:connector-curvature="0" />
      </g>
      <g
         transform="translate(260.9898,212.693)"
         id="g88"
         style="fill:#ffffff">
        <path
           id="path90"
           style="fill:#ffffff;fill-opacity:1;fill-rule:nonzero;stroke:none"
           d="M 0,0 C 1.68,0 3.047,1.367 3.047,3.046 3.047,4.727 1.68,6.094 0,6.094 -1.68,6.094 -3.047,4.727 -3.047,3.046 -3.047,1.367 -1.68,0 0,0"
           inkscape:connector-curvature="0" />
      </g>
      <g
         transform="translate(300.4059,213.8097)"
         id="g92"
         style="fill:#ffffff">
        <path
           id="path94"
           style="fill:#ffffff;fill-opacity:1;fill-rule:nonzero;stroke:none"
           d="M 0,0 C 1.063,0 1.93,0.866 1.93,1.93 1.93,2.994 1.063,3.859 0,3.859 -1.064,3.859 -1.93,2.994 -1.93,1.93 -1.93,0.866 -1.064,0 0,0"
           inkscape:connector-curvature="0" />
      </g>
      <g
         transform="translate(245.2232,205.9269)"
         id="g96"
         style="fill:#ffffff">
        <path
           id="path98"
           style="fill:#ffffff;fill-opacity:1;fill-rule:nonzero;stroke:none"
           d="M 0,0 C 1.064,0 1.93,0.866 1.93,1.93 1.93,2.994 1.064,3.859 0,3.859 -1.063,3.859 -1.93,2.994 -1.93,1.93 -1.93,0.866 -1.063,0 0,0"
           inkscape:connector-curvature="0" />
      </g>
      <g
         transform="translate(260.9898,204.8097)"
         id="g100"
         style="fill:#ffffff">
        <path
           id="path102"
           style="fill:#ffffff;fill-opacity:1;fill-rule:nonzero;stroke:none"
           d="M 0,0 C 4.268,0 4.829,-4.756 4.835,-4.804 4.837,-9.455 0.059,-9.67 0.011,-9.672 c -1.691,0 -3.058,-1.368 -3.058,-3.048 0,-1.679 1.367,-3.046 3.047,-3.046 1.68,0 3.047,1.367 3.047,3.046 0,4.268 4.755,4.83 4.804,4.835 1.712,0.002 3.079,1.369 3.079,3.049 0,1.68 -1.367,3.047 -3.047,3.047 -4.618,0 -4.835,4.777 -4.836,4.826 0,4.277 4.755,4.839 4.804,4.845 1.712,0.001 3.079,1.368 3.079,3.048 0,1.68 -1.367,3.047 -3.047,3.047 -1.68,0 -3.046,-1.367 -3.046,-3.047 C 4.837,6.312 0.059,6.096 0.011,6.094 -1.68,6.094 -3.047,4.727 -3.047,3.047 -3.047,1.367 -1.68,0 0,0"
           inkscape:connector-curvature="0" />
      </g>
      <g
         transform="translate(273.7086,207.8566)"
         id="g104"
         style="fill:#ffffff">
        <path
           id="path106"
           style="fill:#ffffff;fill-opacity:1;fill-rule:nonzero;stroke:none"
           d="m 0,0 c 0,-1.68 1.367,-3.047 3.047,-3.047 1.681,0 3.048,1.367 3.048,3.047 0,4.268 4.755,4.83 4.803,4.835 H 10.9 c 4.298,0 4.86,-4.754 4.865,-4.802 0.002,-1.713 1.369,-3.08 3.048,-3.08 1.681,0 3.047,1.367 3.047,3.047 0,1.68 -1.366,3.047 -3.047,3.047 -4.618,0 -4.834,4.777 -4.835,4.826 0,1.69 -1.367,3.057 -3.047,3.057 C 9.25,10.93 7.884,9.563 7.884,7.883 7.884,3.265 3.106,3.049 3.058,3.047 1.367,3.047 0,1.68 0,0"
           inkscape:connector-curvature="0" />
      </g>
      <g
         transform="translate(308.2877,205.9269)"
         id="g108"
         style="fill:#ffffff">
        <path
           id="path110"
           style="fill:#ffffff;fill-opacity:1;fill-rule:nonzero;stroke:none"
           d="M 0,0 C 1.064,0 1.93,0.866 1.93,1.93 1.93,2.994 1.064,3.859 0,3.859 -1.063,3.859 -1.93,2.994 -1.93,1.93 -1.93,0.866 -1.063,0 0,0"
           inkscape:connector-curvature="0" />
      </g>
      <g
         transform="translate(237.3404,198.0436)"
         id="g112"
         style="fill:#ffffff">
        <path
           id="path114"
           style="fill:#ffffff;fill-opacity:1;fill-rule:nonzero;stroke:none"
           d="M 0,0 C 1.064,0 1.93,0.866 1.93,1.93 1.93,2.994 1.064,3.859 0,3.859 -1.064,3.859 -1.93,2.994 -1.93,1.93 -1.93,0.866 -1.064,0 0,0"
           inkscape:connector-curvature="0" />
      </g>
      <g
         transform="translate(237.3404,189.0436)"
         id="g116"
         style="fill:#ffffff">
        <path
           id="path118"
           style="fill:#ffffff;fill-opacity:1;fill-rule:nonzero;stroke:none"
           d="M 0,0 C 1.681,0 3.047,1.367 3.047,3.046 3.047,4.727 1.681,6.094 0,6.094 -1.681,6.094 -3.047,4.727 -3.047,3.046 -3.047,1.367 -1.681,0 0,0"
           inkscape:connector-curvature="0" />
      </g>
      <g
         transform="translate(253.107,203.0207)"
         id="g120"
         style="fill:#ffffff">
        <path
           id="path122"
           style="fill:#ffffff;fill-opacity:1;fill-rule:nonzero;stroke:none"
           d="m 0,0 c -1.681,0 -3.047,-1.367 -3.047,-3.047 0,-1.68 1.366,-3.047 3.047,-3.047 1.681,0 3.047,1.367 3.047,3.047 C 3.047,-1.367 1.681,0 0,0"
           inkscape:connector-curvature="0" />
      </g>
      <g
         transform="translate(316.1725,187.2541)"
         id="g124"
         style="fill:#ffffff">
        <path
           id="path126"
           style="fill:#ffffff;fill-opacity:1;fill-rule:nonzero;stroke:none"
           d="m 0,0 c -4.619,0 -4.835,4.777 -4.837,4.826 0,1.69 -1.367,3.057 -3.048,3.057 -4.617,0 -4.834,4.778 -4.836,4.826 0,1.69 -1.366,3.058 -3.046,3.058 -1.68,0 -3.046,-1.368 -3.046,-3.048 0,-1.679 1.366,-3.047 3.046,-3.047 4.268,0 4.829,-4.755 4.834,-4.803 0.002,-1.713 1.369,-3.079 3.048,-3.079 4.269,0 4.829,-4.756 4.835,-4.804 0.002,-1.713 1.369,-3.08 3.05,-3.08 1.68,0 3.046,1.367 3.046,3.047 C 3.046,-1.367 1.68,0 0,0"
           inkscape:connector-curvature="0" />
      </g>
      <g
         transform="translate(240.3873,176.3244)"
         id="g128"
         style="fill:#ffffff">
        <path
           id="path130"
           style="fill:#ffffff;fill-opacity:1;fill-rule:nonzero;stroke:none"
           d="M 0,0 C 0,1.68 -1.366,3.047 -3.047,3.047 -4.728,3.047 -6.094,1.68 -6.094,0 c 0,-1.68 1.366,-3.047 3.047,-3.047 C -1.366,-3.047 0,-1.68 0,0"
           inkscape:connector-curvature="0" />
      </g>
      <g
         transform="translate(316.1725,179.3713)"
         id="g132"
         style="fill:#ffffff">
        <path
           id="path134"
           style="fill:#ffffff;fill-opacity:1;fill-rule:nonzero;stroke:none"
           d="m 0,0 c -1.681,0 -3.048,-1.367 -3.048,-3.047 0,-1.68 1.367,-3.047 3.048,-3.047 1.68,0 3.046,1.367 3.046,3.047 C 3.046,-1.367 1.68,0 0,0"
           inkscape:connector-curvature="0" />
      </g>
      <g
         transform="translate(284.6393,179.3713)"
         id="g136"
         style="fill:#ffffff">
        <path
           id="path138"
           style="fill:#ffffff;fill-opacity:1;fill-rule:nonzero;stroke:none"
           d="m 0,0 c -4.619,0 -4.835,4.777 -4.836,4.826 0,1.69 -1.367,3.057 -3.048,3.057 -1.679,0 -3.047,-1.367 -3.047,-3.047 0,-1.68 1.368,-3.047 3.047,-3.047 4.268,0 4.829,-4.755 4.835,-4.804 0.002,-1.712 1.368,-3.079 3.049,-3.079 1.681,0 3.047,1.367 3.047,3.047 C 3.047,-1.367 1.681,0 0,0"
           inkscape:connector-curvature="0" />
      </g>
      <g
         transform="translate(316.1725,163.6047)"
         id="g140"
         style="fill:#ffffff">
        <path
           id="path142"
           style="fill:#ffffff;fill-opacity:1;fill-rule:nonzero;stroke:none"
           d="m 0,0 c -4.619,0 -4.835,4.777 -4.837,4.826 0,1.69 -1.367,3.057 -3.048,3.057 -1.679,0 -3.046,-1.367 -3.046,-3.047 0,-1.68 1.367,-3.046 3.046,-3.046 4.269,0 4.829,-4.756 4.835,-4.804 0.002,-1.713 1.369,-3.08 3.05,-3.08 1.68,0 3.046,1.367 3.046,3.048 C 3.046,-1.367 1.68,0 0,0"
           inkscape:connector-curvature="0" />
      </g>
      <g
         transform="translate(237.3404,154.6047)"
         id="g144"
         style="fill:#ffffff">
        <path
           id="path146"
           style="fill:#ffffff;fill-opacity:1;fill-rule:nonzero;stroke:none"
           d="m 0,0 c -1.064,0 -1.93,-0.866 -1.93,-1.93 0,-1.064 0.866,-1.929 1.93,-1.929 1.064,0 1.93,0.865 1.93,1.929 C 1.93,-0.866 1.064,0 0,0"
           inkscape:connector-curvature="0" />
      </g>
      <g
         transform="translate(229.4576,186.1369)"
         id="g148"
         style="fill:#ffffff">
        <path
           id="path150"
           style="fill:#ffffff;fill-opacity:1;fill-rule:nonzero;stroke:none"
           d="m 0,0 c -1.064,0 -1.93,-0.865 -1.93,-1.93 0,-1.064 0.866,-1.929 1.93,-1.929 1.063,0 1.93,0.865 1.93,1.929 C 1.93,-0.865 1.063,0 0,0"
           inkscape:connector-curvature="0" />
      </g>
      <g
         transform="translate(229.4576,178.2541)"
         id="g152"
         style="fill:#ffffff">
        <path
           id="path154"
           style="fill:#ffffff;fill-opacity:1;fill-rule:nonzero;stroke:none"
           d="m 0,0 c -1.064,0 -1.93,-0.866 -1.93,-1.93 0,-1.064 0.866,-1.93 1.93,-1.93 1.063,0 1.93,0.866 1.93,1.93 C 1.93,-0.866 1.063,0 0,0"
           inkscape:connector-curvature="0" />
      </g>
      <g
         transform="translate(229.4576,170.3708)"
         id="g156"
         style="fill:#ffffff">
        <path
           id="path158"
           style="fill:#ffffff;fill-opacity:1;fill-rule:nonzero;stroke:none"
           d="m 0,0 c -1.064,0 -1.93,-0.866 -1.93,-1.93 0,-1.064 0.866,-1.929 1.93,-1.929 1.063,0 1.93,0.865 1.93,1.929 C 1.93,-0.866 1.063,0 0,0"
           inkscape:connector-curvature="0" />
      </g>
      <g
         transform="translate(324.0543,182.2775)"
         id="g160"
         style="fill:#ffffff">
        <path
           id="path162"
           style="fill:#ffffff;fill-opacity:1;fill-rule:nonzero;stroke:none"
           d="M 0,0 C 1.064,0 1.93,0.866 1.93,1.93 1.93,2.994 1.064,3.859 0,3.859 -1.063,3.859 -1.93,2.994 -1.93,1.93 -1.93,0.866 -1.063,0 0,0"
           inkscape:connector-curvature="0" />
      </g>
      <g
         transform="translate(324.0543,191.278)"
         id="g164"
         style="fill:#ffffff">
        <path
           id="path166"
           style="fill:#ffffff;fill-opacity:1;fill-rule:nonzero;stroke:none"
           d="M 0,0 C 0.448,0 0.812,0.364 0.812,0.812 0.812,1.26 0.448,1.625 0,1.625 -0.447,1.625 -0.812,1.26 -0.812,0.812 -0.812,0.364 -0.447,0 0,0"
           inkscape:connector-curvature="0" />
      </g>
      <g
         transform="translate(229.4576,191.278)"
         id="g168"
         style="fill:#ffffff">
        <path
           id="path170"
           style="fill:#ffffff;fill-opacity:1;fill-rule:nonzero;stroke:none"
           d="M 0,0 C 0.447,0 0.812,0.364 0.812,0.812 0.812,1.26 0.447,1.625 0,1.625 -0.448,1.625 -0.812,1.26 -0.812,0.812 -0.812,0.364 -0.448,0 0,0"
           inkscape:connector-curvature="0" />
      </g>
      <g
         transform="translate(324.0543,178.2541)"
         id="g172"
         style="fill:#ffffff">
        <path
           id="path174"
           style="fill:#ffffff;fill-opacity:1;fill-rule:nonzero;stroke:none"
           d="m 0,0 c -1.063,0 -1.93,-0.866 -1.93,-1.93 0,-1.064 0.867,-1.93 1.93,-1.93 1.064,0 1.93,0.866 1.93,1.93 C 1.93,-0.866 1.064,0 0,0"
           inkscape:connector-curvature="0" />
      </g>
      <g
         transform="translate(324.0543,170.3708)"
         id="g176"
         style="fill:#ffffff">
        <path
           id="path178"
           style="fill:#ffffff;fill-opacity:1;fill-rule:nonzero;stroke:none"
           d="m 0,0 c -1.063,0 -1.93,-0.866 -1.93,-1.93 0,-1.064 0.867,-1.929 1.93,-1.929 1.064,0 1.93,0.865 1.93,1.929 C 1.93,-0.866 1.064,0 0,0"
           inkscape:connector-curvature="0" />
      </g>
      <g
         transform="translate(324.0543,162.488)"
         id="g180"
         style="fill:#ffffff">
        <path
           id="path182"
           style="fill:#ffffff;fill-opacity:1;fill-rule:nonzero;stroke:none"
           d="m 0,0 c -1.063,0 -1.93,-0.866 -1.93,-1.93 0,-1.064 0.867,-1.93 1.93,-1.93 1.064,0 1.93,0.866 1.93,1.93 C 1.93,-0.866 1.064,0 0,0"
           inkscape:connector-curvature="0" />
      </g>
      <g
         transform="translate(229.4576,162.488)"
         id="g184"
         style="fill:#ffffff">
        <path
           id="path186"
           style="fill:#ffffff;fill-opacity:1;fill-rule:nonzero;stroke:none"
           d="m 0,0 c -1.064,0 -1.93,-0.866 -1.93,-1.93 0,-1.064 0.866,-1.93 1.93,-1.93 1.063,0 1.93,0.866 1.93,1.93 C 1.93,-0.866 1.063,0 0,0"
           inkscape:connector-curvature="0" />
      </g>
      <g
         transform="translate(253.107,137.7209)"
         id="g188"
         style="fill:#ffffff">
        <path
           id="path190"
           style="fill:#ffffff;fill-opacity:1;fill-rule:nonzero;stroke:none"
           d="m 0,0 c -0.448,0 -0.812,-0.364 -0.812,-0.812 0,-0.448 0.364,-0.813 0.812,-0.813 0.448,0 0.812,0.365 0.812,0.813 C 0.812,-0.364 0.448,0 0,0"
           inkscape:connector-curvature="0" />
      </g>
      <g
         transform="translate(300.4059,137.7209)"
         id="g192"
         style="fill:#ffffff">
        <path
           id="path194"
           style="fill:#ffffff;fill-opacity:1;fill-rule:nonzero;stroke:none"
           d="m 0,0 c -0.448,0 -0.812,-0.364 -0.812,-0.812 0,-0.448 0.364,-0.813 0.812,-0.813 0.447,0 0.812,0.365 0.812,0.813 C 0.812,-0.364 0.447,0 0,0"
           inkscape:connector-curvature="0" />
      </g>
      <g
         transform="translate(245.2232,155.7218)"
         id="g196"
         style="fill:#ffffff">
        <path
           id="path198"
           style="fill:#ffffff;fill-opacity:1;fill-rule:nonzero;stroke:none"
           d="m 0,0 c -1.68,0 -3.047,-1.367 -3.047,-3.047 0,-1.68 1.367,-3.047 3.047,-3.047 1.681,0 3.048,1.367 3.048,3.047 C 3.048,-1.367 1.681,0 0,0"
           inkscape:connector-curvature="0" />
      </g>
      <g
         transform="translate(308.2877,155.7218)"
         id="g200"
         style="fill:#ffffff">
        <path
           id="path202"
           style="fill:#ffffff;fill-opacity:1;fill-rule:nonzero;stroke:none"
           d="m 0,0 c -1.68,0 -3.046,-1.367 -3.046,-3.047 0,-1.68 1.366,-3.047 3.046,-3.047 1.681,0 3.048,1.367 3.048,3.047 C 3.048,-1.367 1.681,0 0,0"
           inkscape:connector-curvature="0" />
      </g>
      <g
         transform="translate(316.1725,154.6047)"
         id="g204"
         style="fill:#ffffff">
        <path
           id="path206"
           style="fill:#ffffff;fill-opacity:1;fill-rule:nonzero;stroke:none"
           d="m 0,0 c -1.064,0 -1.93,-0.866 -1.93,-1.93 0,-1.064 0.866,-1.929 1.93,-1.929 1.062,0 1.929,0.865 1.929,1.929 C 1.929,-0.866 1.062,0 0,0"
           inkscape:connector-curvature="0" />
      </g>
      <g
         transform="translate(292.5221,147.8385)"
         id="g208"
         style="fill:#ffffff">
        <path
           id="path210"
           style="fill:#ffffff;fill-opacity:1;fill-rule:nonzero;stroke:none"
           d="m 0,0 c -4.618,0 -4.834,4.777 -4.836,4.826 0,4.278 4.755,4.84 4.804,4.845 1.713,0.001 3.079,1.369 3.079,3.049 0,1.679 -1.366,3.046 -3.047,3.046 -1.68,0 -3.047,-1.367 -3.047,-3.046 0,-4.619 -4.777,-4.835 -4.826,-4.837 -1.69,0 -3.057,-1.367 -3.057,-3.047 0,-1.68 1.367,-3.046 3.047,-3.046 4.268,0 4.829,-4.756 4.834,-4.804 0.002,-0.212 0.022,-0.399 0.06,-0.604 L -2.98,-3.664 -2.984,-3.709 C -3.32,-6.738 -5.899,-7.573 -7.125,-7.8 l 0.114,-0.114 -0.853,0.028 c -4.638,0.003 -4.854,4.781 -4.855,4.829 0,1.69 -1.367,3.057 -3.048,3.057 -1.679,0 -3.046,-1.367 -3.046,-3.046 0,-1.681 1.367,-3.048 3.046,-3.048 4.268,0 4.829,-4.755 4.835,-4.803 0.002,-1.713 1.369,-3.08 3.049,-3.08 1.681,0 3.047,1.367 3.047,3.047 -0.007,0.047 -0.011,0.076 -0.012,0.104 l -0.031,0.778 0.192,-0.191 c 0.371,2.809 2.979,3.747 4.169,4.032 l -0.092,0.093 0.697,0.03 c 1.659,0.047 2.96,1.382 2.96,3.038 C 3.047,-1.367 1.681,0 0,0"
           inkscape:connector-curvature="0" />
      </g>
      <g
         transform="translate(300.4059,147.8385)"
         id="g212"
         style="fill:#ffffff">
        <path
           id="path214"
           style="fill:#ffffff;fill-opacity:1;fill-rule:nonzero;stroke:none"
           d="m 0,0 c -4.619,0 -4.835,4.777 -4.837,4.826 0,4.278 4.756,4.84 4.804,4.845 1.713,0.001 3.079,1.369 3.079,3.049 0,1.679 -1.366,3.046 -3.046,3.046 -4.619,0 -4.835,4.777 -4.837,4.826 0,1.69 -1.366,3.057 -3.047,3.057 -1.679,0 -3.047,-1.367 -3.047,-3.046 0,-4.619 -4.777,-4.835 -4.826,-4.837 -4.629,0 -4.845,4.777 -4.846,4.826 0,1.69 -1.367,3.057 -3.047,3.057 -1.68,0 -3.047,-1.367 -3.047,-3.046 0,-4.619 -4.778,-4.835 -4.825,-4.837 -1.691,0 -3.057,-1.367 -3.057,-3.046 0,-1.68 1.366,-3.048 3.046,-3.048 1.68,0 3.047,1.368 3.047,3.048 0,4.267 4.755,4.829 4.803,4.834 h 0.003 c 4.297,0 4.859,-4.754 4.865,-4.802 0.002,-4.651 -4.776,-4.867 -4.825,-4.869 -1.69,0 -3.057,-1.367 -3.057,-3.047 0,-4.618 -4.778,-4.834 -4.825,-4.836 -4.629,0 -4.846,4.777 -4.847,4.826 0,1.69 -1.367,3.057 -3.047,3.057 -1.68,0 -3.047,-1.367 -3.047,-3.047 0,-4.618 -4.777,-4.834 -4.826,-4.836 -1.691,0 -3.057,-1.367 -3.057,-3.046 0,-1.681 1.366,-3.048 3.047,-3.048 1.681,0 3.047,1.367 3.047,3.048 0,4.267 4.755,4.829 4.804,4.834 h 0.002 c 4.298,0 4.859,-4.754 4.865,-4.802 0.002,-1.713 1.368,-3.08 3.048,-3.08 4.268,0 4.829,-4.755 4.835,-4.803 0.001,-1.713 1.368,-3.08 3.048,-3.08 1.68,0 3.047,1.367 3.047,3.047 0,1.68 -1.367,3.047 -3.047,3.047 -4.618,0 -4.834,4.778 -4.836,4.826 0,4.278 4.755,4.84 4.803,4.845 h 0.003 c 4.297,0 4.859,-4.754 4.865,-4.802 0.002,-1.713 1.368,-3.08 3.048,-3.08 1.681,0 3.047,1.367 3.047,3.048 0,1.679 -1.366,3.046 -3.047,3.046 -4.619,0 -4.835,4.777 -4.836,4.826 0,4.278 4.755,4.84 4.804,4.845 1.713,0.001 3.079,1.369 3.079,3.049 0,4.267 4.755,4.829 4.804,4.834 h 0.002 c 4.298,0 4.859,-4.754 4.865,-4.802 0.002,-4.651 -4.776,-4.867 -4.824,-4.869 -1.69,0 -3.058,-1.367 -3.058,-3.047 0,-1.68 1.368,-3.046 3.047,-3.046 4.268,0 4.829,-4.756 4.835,-4.804 0.002,-1.713 1.368,-3.08 3.049,-3.08 1.68,0 3.046,1.367 3.046,3.048 C 3.046,-1.367 1.68,0 0,0"
           inkscape:connector-curvature="0" />
      </g>
      <g
         transform="translate(260.9898,138.8385)"
         id="g216"
         style="fill:#ffffff">
        <path
           id="path218"
           style="fill:#ffffff;fill-opacity:1;fill-rule:nonzero;stroke:none"
           d="m 0,0 c -1.063,0 -1.93,-0.866 -1.93,-1.93 0,-1.064 0.867,-1.929 1.93,-1.929 1.064,0 1.93,0.865 1.93,1.929 C 1.93,-0.866 1.064,0 0,0"
           inkscape:connector-curvature="0" />
      </g>
      <g
         transform="translate(268.8727,139.9557)"
         id="g220"
         style="fill:#ffffff">
        <path
           id="path222"
           style="fill:#ffffff;fill-opacity:1;fill-rule:nonzero;stroke:none"
           d="m 0,0 c -4.618,0 -4.835,4.777 -4.836,4.826 0,1.69 -1.367,3.057 -3.047,3.057 -1.68,0 -3.047,-1.367 -3.047,-3.047 0,-1.68 1.367,-3.047 3.047,-3.047 4.268,0 4.829,-4.755 4.835,-4.804 0.002,-1.712 1.368,-3.079 3.048,-3.079 1.681,0 3.047,1.367 3.047,3.047 C 3.047,-1.367 1.681,0 0,0"
           inkscape:connector-curvature="0" />
      </g>
      <g
         transform="translate(292.5221,138.8385)"
         id="g224"
         style="fill:#ffffff">
        <path
           id="path226"
           style="fill:#ffffff;fill-opacity:1;fill-rule:nonzero;stroke:none"
           d="m 0,0 c -1.063,0 -1.93,-0.866 -1.93,-1.93 0,-1.064 0.867,-1.929 1.93,-1.929 1.064,0 1.93,0.865 1.93,1.929 C 1.93,-0.866 1.064,0 0,0"
           inkscape:connector-curvature="0" />
      </g>
      <g
         transform="translate(245.1939,165.3927)"
         id="g228"
         style="fill:#ffffff">
        <path
           id="path230"
           style="fill:#ffffff;fill-opacity:1;fill-rule:nonzero;stroke:none"
           d="m 0,0 c 4.297,0 4.858,-4.754 4.864,-4.802 l 0.002,-0.032 c 0,-1.681 1.366,-3.048 3.047,-3.048 1.681,0 3.047,1.367 3.047,3.048 0,1.679 -1.366,3.046 -3.047,3.046 -4.619,0 -4.835,4.777 -4.836,4.826 0,1.69 -1.367,3.057 -3.048,3.057 -1.679,0 -3.047,-1.367 -3.047,-3.047 0,-4.618 -4.777,-4.834 -4.825,-4.836 -1.691,0 -3.057,-1.367 -3.057,-3.046 0,-1.681 1.366,-3.048 3.046,-3.048 1.681,0 3.047,1.367 3.047,3.048 0,4.267 4.755,4.829 4.804,4.834 z"
           inkscape:connector-curvature="0" />
      </g>
    </g>
  </g>
</svg>
